<svg width="64" height="63" viewBox="0 0 64 63" fill="none" xmlns="http://www.w3.org/2000/svg">
<g opacity="0.75">
<rect x="1" y="16" width="62" height="45" rx="3" fill="#CA9EFB" stroke="#8359D8" stroke-width="2"/>
<rect x="21.3594" width="37" height="52" rx="2" transform="rotate(15 21.3594 0)" fill="url(#paint0_linear_1308_6990)"/>
<line x1="23.7647" y1="8.40914" x2="50.8106" y2="15.6561" stroke="#7645D7" stroke-opacity="0.5" stroke-linecap="round"/>
<line x1="22.4708" y1="13.2387" x2="49.5167" y2="20.4857" stroke="#7645D7" stroke-opacity="0.5" stroke-linecap="round"/>
<line x1="21.1768" y1="18.0684" x2="35.6657" y2="21.9507" stroke="#7645D7" stroke-opacity="0.5" stroke-linecap="round"/>
<line x1="19.8829" y1="22.898" x2="38.2355" y2="27.8156" stroke="#7645D7" stroke-opacity="0.5" stroke-linecap="round"/>
<mask id="path-7-outside-1_1308_6990" maskUnits="userSpaceOnUse" x="1" y="16.1035" width="62" height="47" fill="black">
<rect fill="white" x="1" y="16.1035" width="62" height="47"/>
<path d="M61 58.1094C61 59.2139 60.1046 60.1094 59 60.1094H5C3.8956 60.1092 3 59.2138 3 58.1094V20.9346L29.7676 39.665C30.6726 40.298 32.14 40.2982 33.0449 39.665L61 20.1035V58.1094Z"/>
</mask>
<path d="M61 58.1094C61 59.2139 60.1046 60.1094 59 60.1094H5C3.8956 60.1092 3 59.2138 3 58.1094V20.9346L29.7676 39.665C30.6726 40.298 32.14 40.2982 33.0449 39.665L61 20.1035V58.1094Z" fill="#F4EAFF"/>
<path d="M5 60.1094L4.99964 62.1094H5V60.1094ZM3 20.9346L4.14664 19.2959L1 17.0941V20.9346H3ZM29.7676 39.665L28.6209 41.3037L28.6214 41.304L29.7676 39.665ZM33.0449 39.665L34.1915 41.3037L34.1916 41.3037L33.0449 39.665ZM61 20.1035H63V16.263L59.8534 18.4649L61 20.1035ZM61 58.1094H59V60.1094V62.1094C61.2091 62.1094 63 60.3185 63 58.1094H61ZM59 60.1094V58.1094H5V60.1094V62.1094H59V60.1094ZM5 60.1094L5.00036 58.1094H5H3H1C1 60.3187 2.79131 62.109 4.99964 62.1094L5 60.1094ZM3 58.1094H5V20.9346H3H1V58.1094H3ZM3 20.9346L1.85336 22.5732L28.6209 41.3037L29.7676 39.665L30.9142 38.0264L4.14664 19.2959L3 20.9346ZM29.7676 39.665L28.6214 41.304C29.4728 41.8994 30.4872 42.1398 31.4062 42.1398C32.3252 42.1399 33.3399 41.8996 34.1915 41.3037L33.0449 39.665L31.8983 38.0263C31.8451 38.0636 31.6736 38.1398 31.4064 38.1398C31.1392 38.1398 30.9674 38.0636 30.9138 38.0261L29.7676 39.665ZM33.0449 39.665L34.1916 41.3037L62.1466 21.7422L61 20.1035L59.8534 18.4649L31.8983 38.0264L33.0449 39.665ZM61 20.1035H59V58.1094H61H63V20.1035H61Z" fill="#8359D8" mask="url(#path-7-outside-1_1308_6990)"/>
</g>
<defs>
<linearGradient id="paint0_linear_1308_6990" x1="39.8594" y1="0" x2="39.8594" y2="52" gradientUnits="userSpaceOnUse">
<stop offset="0.197115" stop-color="#FED7FF"/>
<stop offset="0.884615" stop-color="#C9AAFF"/>
</linearGradient>
</defs>
</svg>
