<svg width="333" height="106" viewBox="0 0 333 106" fill="none" xmlns="http://www.w3.org/2000/svg">
<path d="M311.117 77.238L327.663 89.958" stroke="#8140B3" stroke-width="3"/>
<path d="M12.1618 36.5847V53.7361H30.5492V59.257H12.1618V76.9236H32.721V82.4445H5.57422V31.0639H32.721V36.5847H12.1618ZM67.5916 83.107C64.5511 83.107 61.8243 82.5917 59.4113 81.5611C56.9981 80.4814 55.0919 79.0092 53.6924 77.1445C52.2927 75.2306 51.5207 73.0467 51.3759 70.5931H58.1807C58.3735 72.605 59.2906 74.2492 60.9316 75.525C62.6206 76.8008 64.8164 77.4389 67.5192 77.4389C70.0288 77.4389 72.0074 76.8745 73.4553 75.7458C74.9031 74.6172 75.627 73.1939 75.627 71.4764C75.627 69.7097 74.8547 68.4092 73.3105 67.575C71.7659 66.6917 69.377 65.8328 66.1437 64.9986C63.1997 64.2133 60.7868 63.4284 58.9046 62.6431C57.0705 61.8089 55.4779 60.6064 54.1268 59.0361C52.8237 57.4167 52.1722 55.3064 52.1722 52.7056C52.1722 50.6445 52.7754 48.755 53.982 47.0375C55.1883 45.32 56.9017 43.9703 59.1218 42.9889C61.3416 41.9583 63.8753 41.4431 66.7229 41.4431C71.1144 41.4431 74.6619 42.5717 77.3644 44.8292C80.0669 47.0867 81.5147 50.1784 81.7079 54.1042H75.1203C74.9755 51.9939 74.1308 50.3008 72.5866 49.025C71.0904 47.7492 69.0634 47.1111 66.5057 47.1111C64.1408 47.1111 62.2586 47.6264 60.8592 48.657C59.4594 49.6875 58.7598 51.037 58.7598 52.7056C58.7598 54.0306 59.1698 55.1347 59.9905 56.0181C60.8592 56.8522 61.9207 57.5395 63.1757 58.0792C64.4787 58.57 66.2642 59.1342 68.5326 59.7722C71.3799 60.5575 73.6965 61.3425 75.4822 62.1278C77.268 62.8639 78.7882 63.9925 80.0429 65.5139C81.3459 67.0353 82.0215 69.0228 82.0698 71.4764C82.0698 73.6847 81.4664 75.6722 80.26 77.4389C79.0534 79.2056 77.3403 80.6042 75.1203 81.6347C72.9485 82.6161 70.4389 83.107 67.5916 83.107ZM99.7666 62.2014C99.7666 58.03 100.587 54.3986 102.228 51.307C103.869 48.1661 106.137 45.737 109.033 44.0195C111.977 42.302 115.331 41.4431 119.095 41.4431C123.969 41.4431 127.975 42.6453 131.112 45.05C134.297 47.4547 136.397 50.7917 137.41 55.0611H130.316C129.64 52.6075 128.313 50.6689 126.334 49.2458C124.404 47.8228 121.991 47.1111 119.095 47.1111C115.331 47.1111 112.29 48.4361 109.974 51.0861C107.657 53.687 106.499 57.3922 106.499 62.2014C106.499 67.0597 107.657 70.8139 109.974 73.4639C112.29 76.1139 115.331 77.4389 119.095 77.4389C121.991 77.4389 124.404 76.752 126.334 75.3778C128.265 74.0036 129.592 72.0409 130.316 69.4889H137.41C136.348 73.6111 134.225 76.9236 131.04 79.4264C127.854 81.88 123.873 83.107 119.095 83.107C115.331 83.107 111.977 82.2481 109.033 80.5306C106.137 78.8131 103.869 76.3839 102.228 73.2431C100.587 70.1022 99.7666 66.4217 99.7666 62.2014ZM174.36 83.107C170.644 83.107 167.266 82.2481 164.226 80.5306C161.233 78.8131 158.869 76.3839 157.131 73.2431C155.442 70.0534 154.598 66.3728 154.598 62.2014C154.598 58.0792 155.466 54.4478 157.204 51.307C158.989 48.1172 161.402 45.6881 164.443 44.0195C167.483 42.302 170.886 41.4431 174.65 41.4431C178.414 41.4431 181.817 42.302 184.857 44.0195C187.898 45.6881 190.286 48.0925 192.024 51.2333C193.809 54.3742 194.702 58.03 194.702 62.2014C194.702 66.3728 193.785 70.0534 191.951 73.2431C190.166 76.3839 187.728 78.8131 184.64 80.5306C181.551 82.2481 178.125 83.107 174.36 83.107ZM174.36 77.2181C176.725 77.2181 178.945 76.6536 181.02 75.525C183.095 74.3964 184.76 72.7034 186.015 70.4458C187.318 68.1883 187.97 65.4403 187.97 62.2014C187.97 58.9625 187.342 56.2145 186.088 53.957C184.833 51.6995 183.192 50.0311 181.165 48.9514C179.138 47.8228 176.942 47.2583 174.578 47.2583C172.164 47.2583 169.944 47.8228 167.917 48.9514C165.939 50.0311 164.346 51.6995 163.14 53.957C161.933 56.2145 161.33 58.9625 161.33 62.2014C161.33 65.4895 161.909 68.262 163.067 70.5195C164.274 72.777 165.866 74.47 167.845 75.5986C169.824 76.6784 171.995 77.2181 174.36 77.2181ZM220.81 49.5403C222.113 47.2339 224.043 45.32 226.601 43.7986C229.207 42.2284 232.224 41.4431 235.65 41.4431C239.173 41.4431 242.358 42.302 245.206 44.0195C248.102 45.737 250.37 48.1661 252.011 51.307C253.651 54.3986 254.472 58.0056 254.472 62.1278C254.472 66.2008 253.651 69.8325 252.011 73.0222C250.37 76.212 248.102 78.6903 245.206 80.457C242.358 82.2236 239.173 83.107 235.65 83.107C232.272 83.107 229.28 82.3464 226.674 80.825C224.116 79.2547 222.161 77.3161 220.81 75.0097V101.583H214.222V42.1056H220.81V49.5403ZM247.74 62.1278C247.74 59.0853 247.136 56.4353 245.93 54.1778C244.723 51.9203 243.082 50.2028 241.007 49.025C238.98 47.8472 236.736 47.2583 234.275 47.2583C231.862 47.2583 229.617 47.8717 227.542 49.0986C225.516 50.2764 223.875 52.0186 222.62 54.325C221.413 56.5825 220.81 59.2078 220.81 62.2014C220.81 65.2439 221.413 67.9186 222.62 70.225C223.875 72.4825 225.516 74.2245 227.542 75.4514C229.617 76.6292 231.862 77.2181 234.275 77.2181C236.736 77.2181 238.98 76.6292 241.007 75.4514C243.082 74.2245 244.723 72.4825 245.93 70.225C247.136 67.9186 247.74 65.2195 247.74 62.1278Z" fill="black"/>
<path d="M291.303 83.1069C287.587 83.1069 284.209 82.2481 281.169 80.5306C278.176 78.8131 275.812 76.3839 274.074 73.2431C272.385 70.0533 271.541 66.3728 271.541 62.2014C271.541 58.0792 272.409 54.4478 274.147 51.3069C275.932 48.1172 278.345 45.6881 281.386 44.0194C284.426 42.3019 287.829 41.4431 291.592 41.4431C295.357 41.4431 298.759 42.3019 301.8 44.0194C304.84 45.6881 307.229 48.0925 308.966 51.2333C310.753 54.3742 311.645 58.03 311.645 62.2014C311.645 66.3728 310.73 70.0533 308.894 73.2431C307.11 76.3839 304.672 78.8131 301.582 80.5306C298.496 82.2481 295.067 83.1069 291.303 83.1069ZM291.303 77.2181C293.669 77.2181 295.889 76.6536 297.963 75.525C300.039 74.3964 301.704 72.7033 302.958 70.4458C304.261 68.1883 304.912 65.4403 304.912 62.2014C304.912 58.9625 304.287 56.2145 303.03 53.9569C301.776 51.6994 300.135 50.0311 298.108 48.9514C296.081 47.8228 293.886 47.2583 291.52 47.2583C289.108 47.2583 286.887 47.8228 284.861 48.9514C282.882 50.0311 281.289 51.6994 280.083 53.9569C278.876 56.2145 278.273 58.9625 278.273 62.2014C278.273 65.4894 278.852 68.2619 280.01 70.5194C281.217 72.777 282.81 74.47 284.788 75.5986C286.767 76.6783 288.938 77.2181 291.303 77.2181Z" fill="#8140B3"/>
</svg>
