<svg width="174" height="56" viewBox="0 0 174 56" fill="none" xmlns="http://www.w3.org/2000/svg">
<path d="M6.35477 19.3278V28.3889H15.9626V31.3056H6.35477V40.6389H17.0974V43.5556H2.9126V16.4111H17.0974V19.3278H6.35477ZM35.3181 43.9056C33.7294 43.9056 32.3045 43.6334 31.0437 43.0889C29.7827 42.5185 28.7867 41.7407 28.0554 40.7556C27.324 39.7445 26.9207 38.5907 26.845 37.2945H30.4007C30.5014 38.3574 30.9806 39.226 31.8381 39.9C32.7206 40.574 33.868 40.9111 35.2802 40.9111C36.5916 40.9111 37.6254 40.6129 38.382 40.0167C39.1385 39.4204 39.5167 38.6685 39.5167 37.7611C39.5167 36.8278 39.1132 36.1407 38.3063 35.7C37.4993 35.2334 36.251 34.7796 34.5615 34.3389C33.0232 33.924 31.7624 33.5093 30.7789 33.0945C29.8206 32.6538 28.9884 32.0185 28.2824 31.1889C27.6015 30.3334 27.2611 29.2185 27.2611 27.8445C27.2611 26.7556 27.5763 25.7574 28.2068 24.85C28.8371 23.9427 29.7324 23.2296 30.8924 22.7111C32.0523 22.1667 33.3762 21.8945 34.8641 21.8945C37.1588 21.8945 39.0125 22.4907 40.4246 23.6834C41.8367 24.876 42.5932 26.5093 42.6941 28.5834H39.252C39.1763 27.4685 38.735 26.574 37.9281 25.9C37.1463 25.226 36.0871 24.8889 34.7507 24.8889C33.515 24.8889 32.5315 25.1611 31.8002 25.7056C31.0688 26.25 30.7033 26.9629 30.7033 27.8445C30.7033 28.5445 30.9175 29.1278 31.3463 29.5945C31.8002 30.0352 32.3549 30.3982 33.0107 30.6834C33.6915 30.9427 34.6245 31.2407 35.8098 31.5778C37.2976 31.9927 38.508 32.4074 39.4411 32.8222C40.3742 33.2111 41.1685 33.8074 41.8241 34.6111C42.505 35.4149 42.858 36.4649 42.8833 37.7611C42.8833 38.9278 42.568 39.9778 41.9376 40.9111C41.3071 41.8445 40.412 42.5834 39.252 43.1278C38.1172 43.6463 36.8058 43.9056 35.3181 43.9056ZM52.1302 32.8611C52.1302 30.6574 52.5589 28.7389 53.4163 27.1056C54.2738 25.4463 55.4589 24.1629 56.972 23.2556C58.5103 22.3482 60.2628 21.8945 62.2298 21.8945C64.7767 21.8945 66.8699 22.5296 68.5089 23.8C70.1733 25.0704 71.2702 26.8334 71.7998 29.0889H68.0928C67.7398 27.7927 67.0463 26.7685 66.0124 26.0167C65.0037 25.2649 63.7428 24.8889 62.2298 24.8889C60.2628 24.8889 58.6742 25.5889 57.4637 26.9889C56.2533 28.3629 55.6481 30.3204 55.6481 32.8611C55.6481 35.4278 56.2533 37.4111 57.4637 38.8111C58.6742 40.2111 60.2628 40.9111 62.2298 40.9111C63.7428 40.9111 65.0037 40.5482 66.0124 39.8222C67.0212 39.0963 67.7146 38.0593 68.0928 36.7111H71.7998C71.245 38.8889 70.1355 40.6389 68.4711 41.9611C66.8068 43.2574 64.7263 43.9056 62.2298 43.9056C60.2628 43.9056 58.5103 43.4518 56.972 42.5445C55.4589 41.6371 54.2738 40.3538 53.4163 38.6945C52.5589 37.0352 52.1302 35.0907 52.1302 32.8611ZM91.1071 43.9056C89.1653 43.9056 87.4002 43.4518 85.8115 42.5445C84.2479 41.6371 83.0124 40.3538 82.1045 38.6945C81.2218 37.0093 80.7806 35.0649 80.7806 32.8611C80.7806 30.6834 81.2345 28.7649 82.1424 27.1056C83.0753 25.4204 84.3363 24.1371 85.925 23.2556C87.5137 22.3482 89.2915 21.8945 91.2584 21.8945C93.2254 21.8945 95.0032 22.3482 96.5919 23.2556C98.1806 24.1371 99.4289 25.4074 100.337 27.0667C101.27 28.726 101.736 30.6574 101.736 32.8611C101.736 35.0649 101.257 37.0093 100.299 38.6945C99.3658 40.3538 98.0923 41.6371 96.4784 42.5445C94.8645 43.4518 93.0741 43.9056 91.1071 43.9056ZM91.1071 40.7945C92.3427 40.7945 93.5027 40.4963 94.5871 39.9C95.6714 39.3038 96.5414 38.4093 97.1971 37.2167C97.878 36.024 98.2184 34.5722 98.2184 32.8611C98.2184 31.15 97.8906 29.6982 97.235 28.5056C96.5792 27.3129 95.7219 26.4316 94.6628 25.8611C93.6037 25.2649 92.4562 24.9667 91.2206 24.9667C89.9597 24.9667 88.7997 25.2649 87.7406 25.8611C86.7066 26.4316 85.8744 27.3129 85.2441 28.5056C84.6136 29.6982 84.2984 31.15 84.2984 32.8611C84.2984 34.5982 84.6011 36.0629 85.2063 37.2556C85.8366 38.4482 86.6688 39.3427 87.7028 39.9389C88.7367 40.5093 89.8714 40.7945 91.1071 40.7945ZM115.378 26.1722C116.059 24.9538 117.068 23.9427 118.404 23.1389C119.766 22.3093 121.342 21.8945 123.133 21.8945C124.973 21.8945 126.638 22.3482 128.126 23.2556C129.639 24.1629 130.824 25.4463 131.681 27.1056C132.539 28.7389 132.967 30.6445 132.967 32.8222C132.967 34.974 132.539 36.8927 131.681 38.5778C130.824 40.2629 129.639 41.5722 128.126 42.5056C126.638 43.4389 124.973 43.9056 123.133 43.9056C121.367 43.9056 119.804 43.5038 118.442 42.7C117.105 41.8704 116.084 40.8463 115.378 39.6278V53.6667H111.936V22.2445H115.378V26.1722ZM129.449 32.8222C129.449 31.2149 129.134 29.8149 128.504 28.6222C127.873 27.4296 127.016 26.5222 125.932 25.9C124.873 25.2778 123.7 24.9667 122.414 24.9667C121.153 24.9667 119.98 25.2907 118.896 25.9389C117.837 26.5611 116.979 27.4816 116.324 28.7C115.693 29.8927 115.378 31.2796 115.378 32.8611C115.378 34.4685 115.693 35.8816 116.324 37.1C116.979 38.2927 117.837 39.2129 118.896 39.8611C119.98 40.4834 121.153 40.7945 122.414 40.7945C123.7 40.7945 124.873 40.4834 125.932 39.8611C127.016 39.2129 127.873 38.2927 128.504 37.1C129.134 35.8816 129.449 34.4556 129.449 32.8222Z" fill="#F4EAFF"/>
<path d="M162.112 40.3201L170.758 47.0401" stroke="white" stroke-width="3"/>
<path d="M152.363 22.3945C154.25 22.3945 155.942 22.8285 157.449 23.6895L157.454 23.6924C158.957 24.5261 160.139 25.7268 161.003 27.3066L161.006 27.3115C161.891 28.8848 162.341 30.7297 162.341 32.8613C162.341 34.9906 161.879 36.8476 160.969 38.4473L160.968 38.4492C160.079 40.0308 158.87 41.2472 157.338 42.1084C155.805 42.971 154.099 43.4053 152.212 43.4053C150.468 43.4053 148.884 43.0243 147.449 42.2666L147.165 42.1104C145.686 41.2511 144.513 40.0363 143.647 38.4541C142.811 36.8531 142.386 34.9932 142.386 32.8613C142.386 30.7546 142.824 28.92 143.686 27.3447C144.576 25.738 145.771 24.5252 147.271 23.6924L147.272 23.6934L147.278 23.6895C148.786 22.8286 150.477 22.3945 152.363 22.3945ZM152.325 24.4668C151.066 24.4668 149.893 24.7471 148.814 25.3096L148.601 25.4258C147.472 26.0497 146.576 27.0069 145.907 28.2715C145.23 29.5529 144.903 31.0901 144.903 32.8613C144.903 34.6541 145.216 36.2011 145.865 37.4814V37.4824L145.869 37.4893C146.538 38.7539 147.432 39.7228 148.558 40.3721L148.566 40.377C149.678 40.9901 150.896 41.2949 152.212 41.2949C153.532 41.2949 154.775 40.9747 155.933 40.3379C157.107 39.6926 158.04 38.7278 158.735 37.4639L158.736 37.4648C159.47 36.1803 159.823 34.6382 159.823 32.8613C159.823 31.0875 159.484 29.5481 158.777 28.2646H158.778C158.083 26.9988 157.159 26.0427 156.004 25.4209C154.871 24.7851 153.642 24.4668 152.325 24.4668Z" fill="white" stroke="white"/>
</svg>
