<svg width="161" height="50" viewBox="0 0 161 50" fill="none" xmlns="http://www.w3.org/2000/svg">
<path d="M5.88031 17.257V25.3473H14.7703V27.9514H5.88031V36.2848H15.8203V38.8889H2.69531V14.6528H15.8203V17.257H5.88031ZM32.6797 39.2014C31.2097 39.2014 29.8913 38.9584 28.7247 38.4723C27.5579 37.963 26.6363 37.2685 25.9597 36.3889C25.2829 35.4862 24.9097 34.456 24.8397 33.2987H28.1297C28.2229 34.2477 28.6663 35.0232 29.4597 35.6251C30.2763 36.2269 31.3379 36.5278 32.6447 36.5278C33.8581 36.5278 34.8147 36.2616 35.5147 35.7292C36.2147 35.1969 36.5647 34.5255 36.5647 33.7153C36.5647 32.882 36.1913 32.2685 35.4447 31.8751C34.6979 31.4584 33.5429 31.0532 31.9797 30.6598C30.5563 30.2894 29.3897 29.9191 28.4797 29.5487C27.5929 29.1552 26.8229 28.588 26.1697 27.8473C25.5397 27.0834 25.2247 26.088 25.2247 24.8612C25.2247 23.8889 25.5163 22.9977 26.0997 22.1876C26.6829 21.3774 27.5113 20.7407 28.5847 20.2778C29.6579 19.7917 30.8829 19.5487 32.2597 19.5487C34.3829 19.5487 36.0981 20.081 37.4047 21.1459C38.7113 22.2107 39.4113 23.6691 39.5047 25.5209H36.3197C36.2497 24.5255 35.8413 23.7269 35.0947 23.1251C34.3713 22.5232 33.3913 22.2223 32.1547 22.2223C31.0113 22.2223 30.1013 22.4653 29.4247 22.9514C28.7479 23.4376 28.4097 24.0741 28.4097 24.8612C28.4097 25.4862 28.6079 26.007 29.0047 26.4237C29.4247 26.8171 29.9379 27.1413 30.5447 27.3959C31.1747 27.6274 32.0379 27.8935 33.1347 28.1945C34.5113 28.5649 35.6313 28.9352 36.4947 29.3056C37.3581 29.6528 38.0931 30.1852 38.6997 30.9028C39.3297 31.6205 39.6563 32.558 39.6797 33.7153C39.6797 34.757 39.3879 35.6945 38.8047 36.5278C38.2213 37.3612 37.3931 38.0209 36.3197 38.507C35.2697 38.9699 34.0563 39.2014 32.6797 39.2014ZM48.2358 29.3403C48.2358 27.3727 48.6324 25.6598 49.4258 24.2014C50.2192 22.7199 51.3158 21.5741 52.7158 20.7639C54.1392 19.9538 55.7608 19.5487 57.5808 19.5487C59.9374 19.5487 61.8742 20.1157 63.3908 21.2501C64.9308 22.3844 65.9458 23.9584 66.4358 25.9723H63.0058C62.6791 24.8149 62.0374 23.9005 61.0808 23.2292C60.1474 22.558 58.9808 22.2223 57.5808 22.2223C55.7608 22.2223 54.2908 22.8473 53.1708 24.0973C52.0508 25.3241 51.4908 27.0719 51.4908 29.3403C51.4908 31.632 52.0508 33.4028 53.1708 34.6528C54.2908 35.9028 55.7608 36.5278 57.5808 36.5278C58.9808 36.5278 60.1474 36.2038 61.0808 35.5556C62.0142 34.9074 62.6558 33.9816 63.0058 32.7778H66.4358C65.9224 34.7223 64.8958 36.2848 63.3558 37.4653C61.8158 38.6227 59.8908 39.2014 57.5808 39.2014C55.7608 39.2014 54.1392 38.7963 52.7158 37.9862C51.3158 37.176 50.2192 36.0302 49.4258 34.5487C48.6324 33.0671 48.2358 31.331 48.2358 29.3403ZM84.3006 39.2014C82.5039 39.2014 80.8706 38.7963 79.4006 37.9862C77.9538 37.176 76.8106 36.0302 75.9706 34.5487C75.1539 33.0441 74.7456 31.308 74.7456 29.3403C74.7456 27.3959 75.1656 25.683 76.0056 24.2014C76.8689 22.6969 78.0356 21.551 79.5056 20.7639C80.9756 19.9538 82.6206 19.5487 84.4406 19.5487C86.2606 19.5487 87.9056 19.9538 89.3756 20.7639C90.8456 21.551 92.0006 22.6852 92.8406 24.1667C93.7038 25.6482 94.1356 27.3727 94.1356 29.3403C94.1356 31.308 93.6922 33.0441 92.8056 34.5487C91.9422 36.0302 90.7639 37.176 89.2706 37.9862C87.7772 38.7963 86.1206 39.2014 84.3006 39.2014ZM84.3006 36.4237C85.4439 36.4237 86.5172 36.1574 87.5206 35.6251C88.5238 35.0927 89.3289 34.2941 89.9356 33.2292C90.5656 32.1644 90.8806 30.8681 90.8806 29.3403C90.8806 27.8126 90.5772 26.5163 89.9706 25.4514C89.3639 24.3866 88.5706 23.5996 87.5906 23.0903C86.6106 22.558 85.5489 22.2917 84.4056 22.2917C83.2389 22.2917 82.1656 22.558 81.1856 23.0903C80.2289 23.5996 79.4589 24.3866 78.8756 25.4514C78.2922 26.5163 78.0006 27.8126 78.0006 29.3403C78.0006 30.8913 78.2806 32.1991 78.8406 33.2639C79.4239 34.3288 80.1939 35.1274 81.1506 35.6598C82.1072 36.1691 83.1572 36.4237 84.3006 36.4237ZM106.758 23.3681C107.388 22.2802 108.322 21.3774 109.558 20.6598C110.818 19.9191 112.277 19.5487 113.933 19.5487C115.637 19.5487 117.177 19.9538 118.553 20.7639C119.953 21.5741 121.05 22.7199 121.843 24.2014C122.637 25.6598 123.033 27.3612 123.033 29.3056C123.033 31.2269 122.637 32.9399 121.843 34.4445C121.05 35.9491 119.953 37.1181 118.553 37.9514C117.177 38.7848 115.637 39.2014 113.933 39.2014C112.3 39.2014 110.853 38.8427 109.593 38.1251C108.357 37.3844 107.412 36.4699 106.758 35.382V47.9167H103.573V19.8612H106.758V23.3681ZM119.778 29.3056C119.778 27.8705 119.487 26.6205 118.903 25.5556C118.32 24.4907 117.527 23.6806 116.523 23.1251C115.543 22.5695 114.458 22.2917 113.268 22.2917C112.102 22.2917 111.017 22.581 110.013 23.1598C109.033 23.7153 108.24 24.5371 107.633 25.6251C107.05 26.6899 106.758 27.9282 106.758 29.3403C106.758 30.7755 107.05 32.0371 107.633 33.1251C108.24 34.1899 109.033 35.0116 110.013 35.5903C111.017 36.1459 112.102 36.4237 113.268 36.4237C114.458 36.4237 115.543 36.1459 116.523 35.5903C117.527 35.0116 118.32 34.1899 118.903 33.1251C119.487 32.0371 119.778 30.7639 119.778 29.3056Z" fill="#F4EAFF"/>
<path d="M150 36L158 42" stroke="white" stroke-width="3"/>
<path d="M140.979 20.0486C142.722 20.0486 144.284 20.4359 145.674 21.2019L145.679 21.2048C147.063 21.9463 148.151 23.0118 148.945 24.4128L148.948 24.4187C149.761 25.8129 150.175 27.4482 150.175 29.3406C150.175 31.2305 149.751 32.8767 148.914 34.2947L148.913 34.2966C148.148 35.6118 147.122 36.6441 145.833 37.3992L145.571 37.5466C144.157 38.3141 142.583 38.7009 140.84 38.7009C139.123 38.7009 137.574 38.3153 136.184 37.5496H136.185C134.82 36.7853 133.741 35.7059 132.944 34.3015C132.176 32.8825 131.785 31.2334 131.785 29.3406C131.785 27.4702 132.188 25.8432 132.979 24.447C133.798 23.0216 134.898 21.9454 136.281 21.2048L136.286 21.2019C137.676 20.4359 139.237 20.0486 140.979 20.0486ZM140.945 21.7917C139.701 21.7917 138.546 22.0765 137.49 22.6492C136.438 23.2096 135.601 24.0712 134.977 25.2107C134.344 26.3659 134.04 27.7501 134.04 29.3406C134.04 30.9498 134.33 32.3425 134.938 33.4968L134.941 33.5037C135.565 34.6419 136.399 35.5133 137.447 36.0964L137.455 36.1013C138.488 36.6513 139.619 36.9236 140.84 36.9236C142.064 36.9236 143.218 36.6369 144.293 36.0662L144.294 36.0671C145.386 35.488 146.255 34.6202 146.904 33.4832L146.905 33.4841C147.59 32.3261 147.92 30.9369 147.92 29.3406C147.92 27.847 147.642 26.5351 147.063 25.4236L146.944 25.2039C146.296 24.0647 145.435 23.2046 144.36 22.6462H144.359C143.307 22.0764 142.167 21.7918 140.945 21.7917Z" fill="white" stroke="white"/>
</svg>
