<svg width="114" height="38" viewBox="0 0 114 38" fill="none" xmlns="http://www.w3.org/2000/svg">
<path d="M3.47435 29V7.66627H18.1032V9.61678H5.72963V27.0495H18.5603V29H3.47435ZM5.48582 19.1255V17.2055H16.7622V19.1255H5.48582ZM27.4636 29.1524C26.1429 29.1524 24.8934 28.9695 23.715 28.6038C22.5365 28.2178 21.6121 27.7403 20.9416 27.1714L21.9168 25.4647C22.567 25.9523 23.4 26.379 24.4159 26.7447C25.4318 27.0901 26.4985 27.2628 27.616 27.2628C29.1398 27.2628 30.237 27.0292 30.9075 26.5619C31.578 26.0742 31.9132 25.4342 31.9132 24.6418C31.9132 24.0526 31.7202 23.5955 31.3342 23.2704C30.9684 22.925 30.4808 22.671 29.8713 22.5085C29.2617 22.3256 28.5811 22.1732 27.8293 22.0513C27.0776 21.9294 26.3258 21.7872 25.574 21.6246C24.8426 21.4621 24.1721 21.2284 23.5626 20.9237C22.953 20.5986 22.4553 20.1617 22.0692 19.6132C21.7035 19.0646 21.5206 18.3331 21.5206 17.4188C21.5206 16.5452 21.7645 15.7629 22.2521 15.0721C22.7397 14.3813 23.4508 13.8429 24.3855 13.4569C25.3404 13.0505 26.4985 12.8473 27.8598 12.8473C28.896 12.8473 29.9322 12.9895 30.9684 13.274C32.0046 13.5381 32.858 13.8937 33.5285 14.3407L32.5837 16.0779C31.8726 15.5902 31.1107 15.2448 30.2979 15.0416C29.4852 14.8181 28.6725 14.7064 27.8598 14.7064C26.4172 14.7064 25.3505 14.9604 24.6597 15.4683C23.9893 15.9559 23.654 16.5858 23.654 17.3579C23.654 17.9674 23.8369 18.4449 24.2026 18.7903C24.5886 19.1357 25.0864 19.41 25.696 19.6132C26.3258 19.796 27.0065 19.9484 27.7379 20.0703C28.4897 20.1922 29.2313 20.3446 29.9627 20.5275C30.7145 20.69 31.3951 20.9237 32.0046 21.2284C32.6345 21.5129 33.1323 21.9294 33.498 22.478C33.884 23.0062 34.0771 23.7072 34.0771 24.5809C34.0771 25.5155 33.8129 26.3282 33.2847 27.019C32.7767 27.6895 32.025 28.2178 31.0294 28.6038C30.0541 28.9695 28.8655 29.1524 27.4636 29.1524ZM44.6915 29.1524C43.1068 29.1524 41.6845 28.807 40.4248 28.1162C39.1854 27.405 38.2102 26.44 37.499 25.2209C36.7879 23.9815 36.4323 22.5694 36.4323 20.9846C36.4323 19.3795 36.7879 17.9674 37.499 16.7483C38.2102 15.5293 39.1854 14.5743 40.4248 13.8835C41.6845 13.1927 43.1068 12.8473 44.6915 12.8473C46.0528 12.8473 47.2821 13.1115 48.3792 13.6397C49.4764 14.168 50.3399 14.9604 50.9698 16.0169L49.3545 17.1141C48.8059 16.3014 48.1253 15.702 47.3125 15.3159C46.4998 14.9299 45.616 14.7369 44.6611 14.7369C43.5233 14.7369 42.4972 15.001 41.5829 15.5293C40.6686 16.0372 39.9473 16.7585 39.4191 17.6931C38.8908 18.6277 38.6267 19.7249 38.6267 20.9846C38.6267 22.2443 38.8908 23.3415 39.4191 24.2761C39.9473 25.2107 40.6686 25.9422 41.5829 26.4704C42.4972 26.9784 43.5233 27.2323 44.6611 27.2323C45.616 27.2323 46.4998 27.0393 47.3125 26.6533C48.1253 26.2673 48.8059 25.678 49.3545 24.8856L50.9698 25.9828C50.3399 27.019 49.4764 27.8114 48.3792 28.36C47.2821 28.8883 46.0528 29.1524 44.6915 29.1524ZM61.4747 29.1524C59.9306 29.1524 58.5388 28.807 57.2994 28.1162C56.0803 27.405 55.1152 26.44 54.4041 25.2209C53.693 23.9815 53.3374 22.5694 53.3374 20.9846C53.3374 19.3795 53.693 17.9674 54.4041 16.7483C55.1152 15.5293 56.0803 14.5743 57.2994 13.8835C58.5185 13.1927 59.9102 12.8473 61.4747 12.8473C63.0595 12.8473 64.4614 13.1927 65.6805 13.8835C66.9199 14.5743 67.885 15.5293 68.5758 16.7483C69.2869 17.9674 69.6425 19.3795 69.6425 20.9846C69.6425 22.5694 69.2869 23.9815 68.5758 25.2209C67.885 26.44 66.9199 27.405 65.6805 28.1162C64.4411 28.807 63.0392 29.1524 61.4747 29.1524ZM61.4747 27.2323C62.6328 27.2323 63.6589 26.9784 64.5529 26.4704C65.4468 25.9422 66.1478 25.2107 66.6558 24.2761C67.184 23.3212 67.4482 22.224 67.4482 20.9846C67.4482 19.7249 67.184 18.6277 66.6558 17.6931C66.1478 16.7585 65.4468 16.0372 64.5529 15.5293C63.6589 15.001 62.643 14.7369 61.5052 14.7369C60.3674 14.7369 59.3515 15.001 58.4575 15.5293C57.5635 16.0372 56.8524 16.7585 56.3241 17.6931C55.7959 18.6277 55.5317 19.7249 55.5317 20.9846C55.5317 22.224 55.7959 23.3212 56.3241 24.2761C56.8524 25.2107 57.5635 25.9422 58.4575 26.4704C59.3515 26.9784 60.3572 27.2323 61.4747 27.2323ZM82.3194 29.1524C80.9378 29.1524 79.6882 28.8375 78.5707 28.2076C77.4533 27.5574 76.5593 26.633 75.8888 25.4342C75.2386 24.2151 74.9135 22.7319 74.9135 20.9846C74.9135 19.2373 75.2386 17.7642 75.8888 16.5655C76.539 15.3464 77.4228 14.422 78.5403 13.7921C79.6577 13.1622 80.9175 12.8473 82.3194 12.8473C83.8432 12.8473 85.2045 13.1927 86.4033 13.8835C87.6223 14.554 88.5773 15.509 89.2681 16.7483C89.9589 17.9674 90.3043 19.3795 90.3043 20.9846C90.3043 22.61 89.9589 24.0323 89.2681 25.2514C88.5773 26.4704 87.6223 27.4254 86.4033 28.1162C85.2045 28.807 83.8432 29.1524 82.3194 29.1524ZM74.0602 34.9125V12.9997H76.1326V17.815L75.9193 21.0151L76.224 24.2456V34.9125H74.0602ZM82.167 27.2323C83.3048 27.2323 84.3207 26.9784 85.2147 26.4704C86.1087 25.9422 86.8198 25.2107 87.348 24.2761C87.8763 23.3212 88.1404 22.224 88.1404 20.9846C88.1404 19.7452 87.8763 18.6582 87.348 17.7236C86.8198 16.789 86.1087 16.0575 85.2147 15.5293C84.3207 15.001 83.3048 14.7369 82.167 14.7369C81.0292 14.7369 80.0032 15.001 79.0888 15.5293C78.1949 16.0575 77.4837 16.789 76.9555 17.7236C76.4475 18.6582 76.1936 19.7452 76.1936 20.9846C76.1936 22.224 76.4475 23.3212 76.9555 24.2761C77.4837 25.2107 78.1949 25.9422 79.0888 26.4704C80.0032 26.9784 81.0292 27.2323 82.167 27.2323Z" fill="white"/>
<rect x="99.334" y="13.2236" width="2.51258" height="4.59239" transform="rotate(-10 99.334 13.2236)" fill="white"/>
<rect x="101.581" y="25.9692" width="2.51258" height="4.59239" transform="rotate(-10 101.581 25.9692)" fill="white"/>
<rect x="93.6416" y="24.193" width="2.51258" height="4.59239" transform="rotate(-100 93.6416 24.193)" fill="white"/>
<rect x="106.387" y="21.9456" width="2.51258" height="4.59239" transform="rotate(-100 106.387 21.9456)" fill="white"/>
<path d="M103.352 29.3145C101.832 29.5826 100.401 29.4842 99.0606 29.0191C97.7366 28.5304 96.6186 27.7476 95.7066 26.6705C94.791 25.5734 94.1957 24.2445 93.9205 22.6838C93.6417 21.1031 93.7467 19.6507 94.2353 18.3267C94.724 17.0027 95.5086 15.8946 96.5892 15.0026C97.6698 14.1106 98.9804 13.5288 100.521 13.2571C102.082 12.9819 103.522 13.0787 104.843 13.5473C106.183 14.0124 107.3 14.7852 108.192 15.8658C109.104 16.9429 109.699 18.2718 109.978 19.8525C110.253 21.4132 110.148 22.8656 109.663 24.2096C109.194 25.5301 108.411 26.6482 107.314 27.5637C106.214 28.4592 104.893 29.0428 103.352 29.3145ZM103.019 27.4236C104.16 27.2225 105.126 26.7942 105.918 26.1388C106.707 25.4633 107.27 24.6212 107.608 23.6126C107.962 22.5804 108.032 21.4541 107.817 20.2335C107.598 18.993 107.147 17.9583 106.465 17.1296C105.802 16.2974 104.987 15.7088 104.018 15.3638C103.046 14.9988 102 14.9151 100.879 15.1127C99.7587 15.3103 98.8041 15.7468 98.0155 16.4223C97.2233 17.0777 96.6482 17.9116 96.2903 18.9237C95.9323 19.9359 95.8627 21.0622 96.0815 22.3028C96.2967 23.5233 96.7473 24.558 97.4334 25.4067C98.1159 26.2354 98.9432 26.8322 99.9154 27.1972C100.884 27.5422 101.919 27.6177 103.019 27.4236Z" fill="white"/>
</svg>
