<svg width="174" height="56" viewBox="0 0 174 56" fill="none" xmlns="http://www.w3.org/2000/svg">
<path d="M6.35477 19.3278V28.3889H15.9626V31.3055H6.35477V40.6389H17.0974V43.5555H2.9126V16.4111H17.0974V19.3278H6.35477ZM35.3181 43.9055C33.7294 43.9055 32.3045 43.6333 31.0437 43.0889C29.7827 42.5185 28.7867 41.7407 28.0554 40.7555C27.324 39.7444 26.9207 38.5907 26.845 37.2944H30.4007C30.5014 38.3573 30.9806 39.226 31.8381 39.9C32.7206 40.574 33.868 40.9111 35.2802 40.9111C36.5916 40.9111 37.6254 40.6129 38.382 40.0167C39.1385 39.4204 39.5168 38.6685 39.5168 37.7611C39.5168 36.8278 39.1132 36.1407 38.3063 35.7C37.4993 35.2333 36.251 34.7796 34.5615 34.3389C33.0232 33.924 31.7624 33.5093 30.7789 33.0944C29.8206 32.6537 28.9884 32.0185 28.2824 31.1889C27.6015 30.3333 27.2611 29.2185 27.2611 27.8444C27.2611 26.7555 27.5763 25.7573 28.2068 24.85C28.8371 23.9426 29.7324 23.2296 30.8924 22.7111C32.0523 22.1667 33.3762 21.8944 34.8641 21.8944C37.1588 21.8944 39.0125 22.4907 40.4246 23.6833C41.8367 24.876 42.5932 26.5093 42.6941 28.5833H39.252C39.1763 27.4685 38.735 26.574 37.9281 25.9C37.1463 25.226 36.0871 24.8889 34.7507 24.8889C33.515 24.8889 32.5315 25.1611 31.8002 25.7055C31.0688 26.25 30.7033 26.9629 30.7033 27.8444C30.7033 28.5444 30.9175 29.1278 31.3463 29.5944C31.8002 30.0351 32.3549 30.3982 33.0107 30.6833C33.6915 30.9426 34.6245 31.2407 35.8098 31.5778C37.2976 31.9926 38.508 32.4073 39.4411 32.8222C40.3742 33.2111 41.1685 33.8073 41.8241 34.6111C42.505 35.4149 42.858 36.4649 42.8833 37.7611C42.8833 38.9278 42.568 39.9778 41.9376 40.9111C41.3071 41.8444 40.412 42.5833 39.252 43.1278C38.1172 43.6462 36.8058 43.9055 35.3181 43.9055ZM52.1302 32.8611C52.1302 30.6573 52.5589 28.7389 53.4163 27.1055C54.2738 25.4462 55.4589 24.1629 56.972 23.2555C58.5103 22.3482 60.2628 21.8944 62.2298 21.8944C64.7767 21.8944 66.8699 22.5296 68.5089 23.8C70.1733 25.0704 71.2702 26.8333 71.7998 29.0889H68.0928C67.7399 27.7926 67.0463 26.7685 66.0124 26.0167C65.0037 25.2649 63.7428 24.8889 62.2298 24.8889C60.2628 24.8889 58.6742 25.5889 57.4637 26.9889C56.2533 28.3629 55.6481 30.3204 55.6481 32.8611C55.6481 35.4278 56.2533 37.4111 57.4637 38.8111C58.6742 40.2111 60.2628 40.9111 62.2298 40.9111C63.7428 40.9111 65.0037 40.5482 66.0124 39.8222C67.0212 39.0962 67.7146 38.0593 68.0928 36.7111H71.7998C71.245 38.8889 70.1355 40.6389 68.4711 41.9611C66.8068 43.2573 64.7263 43.9055 62.2298 43.9055C60.2628 43.9055 58.5103 43.4518 56.972 42.5444C55.4589 41.6371 54.2738 40.3537 53.4163 38.6944C52.5589 37.0351 52.1302 35.0907 52.1302 32.8611ZM91.1071 43.9055C89.1653 43.9055 87.4002 43.4518 85.8115 42.5444C84.2479 41.6371 83.0124 40.3537 82.1045 38.6944C81.2218 37.0093 80.7806 35.0649 80.7806 32.8611C80.7806 30.6833 81.2345 28.7649 82.1424 27.1055C83.0753 25.4204 84.3363 24.1371 85.925 23.2555C87.5137 22.3482 89.2915 21.8944 91.2584 21.8944C93.2254 21.8944 95.0032 22.3482 96.5919 23.2555C98.1806 24.1371 99.4289 25.4073 100.337 27.0667C101.27 28.726 101.736 30.6573 101.736 32.8611C101.736 35.0649 101.257 37.0093 100.299 38.6944C99.3658 40.3537 98.0923 41.6371 96.4784 42.5444C94.8645 43.4518 93.0741 43.9055 91.1071 43.9055ZM91.1071 40.7944C92.3427 40.7944 93.5027 40.4962 94.5871 39.9C95.6714 39.3037 96.5414 38.4093 97.1971 37.2167C97.878 36.024 98.2184 34.5722 98.2184 32.8611C98.2184 31.15 97.8906 29.6982 97.235 28.5055C96.5792 27.3129 95.7219 26.4315 94.6628 25.8611C93.6037 25.2649 92.4562 24.9667 91.2206 24.9667C89.9597 24.9667 88.7998 25.2649 87.7406 25.8611C86.7066 26.4315 85.8744 27.3129 85.2441 28.5055C84.6136 29.6982 84.2984 31.15 84.2984 32.8611C84.2984 34.5982 84.6011 36.0629 85.2063 37.2555C85.8366 38.4482 86.6688 39.3426 87.7028 39.9389C88.7367 40.5093 89.8714 40.7944 91.1071 40.7944ZM115.378 26.1722C116.059 24.9537 117.068 23.9426 118.404 23.1389C119.766 22.3093 121.342 21.8944 123.133 21.8944C124.973 21.8944 126.638 22.3482 128.126 23.2555C129.639 24.1629 130.824 25.4462 131.681 27.1055C132.538 28.7389 132.967 30.6444 132.967 32.8222C132.967 34.974 132.538 36.8926 131.681 38.5778C130.824 40.2629 129.639 41.5722 128.126 42.5055C126.638 43.4389 124.973 43.9055 123.133 43.9055C121.367 43.9055 119.804 43.5037 118.442 42.7C117.105 41.8704 116.084 40.8462 115.378 39.6278V53.6667H111.936V22.2444H115.378V26.1722ZM129.449 32.8222C129.449 31.2149 129.134 29.8149 128.504 28.6222C127.873 27.4296 127.016 26.5222 125.932 25.9C124.873 25.2778 123.7 24.9667 122.414 24.9667C121.153 24.9667 119.98 25.2907 118.896 25.9389C117.837 26.5611 116.979 27.4815 116.324 28.7C115.693 29.8926 115.378 31.2796 115.378 32.8611C115.378 34.4685 115.693 35.8815 116.324 37.1C116.979 38.2926 117.837 39.2129 118.896 39.8611C119.98 40.4833 121.153 40.7944 122.414 40.7944C123.7 40.7944 124.873 40.4833 125.932 39.8611C127.016 39.2129 127.873 38.2926 128.504 37.1C129.134 35.8815 129.449 34.4555 129.449 32.8222Z" fill="#F4EAFF"/>
<path d="M162.112 40.32L170.758 47.04" stroke="white" stroke-width="3"/>
<path d="M152.363 22.3944C154.25 22.3944 155.942 22.8283 157.449 23.6893L157.454 23.6923C158.957 24.526 160.139 25.7266 161.003 27.3065L161.006 27.3114C161.891 28.8847 162.341 30.7295 162.341 32.8612C162.341 34.9905 161.88 36.8474 160.969 38.4471L160.968 38.4491C160.08 40.0307 158.87 41.2471 157.338 42.1083C155.805 42.9708 154.099 43.4052 152.212 43.4052C150.468 43.4051 148.884 43.0241 147.449 42.2665L147.165 42.1102C145.686 41.251 144.513 40.0361 143.648 38.454C142.811 36.853 142.386 34.9931 142.386 32.8612C142.386 30.7545 142.824 28.9199 143.686 27.3446C144.576 25.7379 145.771 24.5251 147.272 23.6923L147.273 23.6932L147.279 23.6893C148.786 22.8285 150.477 22.3944 152.363 22.3944ZM152.325 24.4667C151.066 24.4667 149.893 24.747 148.815 25.3094L148.601 25.4257C147.472 26.0496 146.576 27.0068 145.907 28.2714C145.23 29.5528 144.904 31.09 144.904 32.8612C144.904 34.654 145.216 36.2009 145.865 37.4813V37.4823L145.869 37.4891C146.538 38.7537 147.432 39.7227 148.558 40.3719L148.567 40.3768C149.678 40.9899 150.896 41.2948 152.212 41.2948C153.532 41.2948 154.776 40.9746 155.933 40.3378C157.107 39.6925 158.04 38.7276 158.736 37.4637L158.737 37.4647C159.47 36.1802 159.823 34.6381 159.823 32.8612C159.823 31.0874 159.484 29.5479 158.778 28.2645H158.779C158.083 26.9987 157.159 26.0426 156.004 25.4208C154.871 24.785 153.643 24.4667 152.325 24.4667Z" fill="white" stroke="white"/>
</svg>
