<svg width="163" height="54" viewBox="0 0 163 54" fill="none" xmlns="http://www.w3.org/2000/svg">
<path d="M4.99146 42V11.3507H26.0081V14.1529H8.23152V39.1978H26.6649V42H4.99146ZM7.88124 27.8138V25.0553H24.0816V27.8138H7.88124ZM39.4558 42.2189C37.5585 42.2189 35.7633 41.9562 34.0703 41.4308C32.3773 40.8762 31.0492 40.1902 30.0859 39.3729L31.487 36.921C32.4211 37.6215 33.6179 38.2345 35.0774 38.7599C36.5368 39.2562 38.0693 39.5043 39.6747 39.5043C41.864 39.5043 43.4402 39.1686 44.4035 38.4972C45.3668 37.7967 45.8484 36.8772 45.8484 35.7388C45.8484 34.8923 45.5711 34.2355 45.0165 33.7685C44.4911 33.2723 43.7905 32.9074 42.9148 32.6739C42.0391 32.4112 41.0613 32.1922 39.9812 32.0171C38.9012 31.842 37.8212 31.6376 36.7412 31.4041C35.6903 31.1706 34.7271 30.8349 33.8514 30.3971C32.9757 29.93 32.2605 29.3024 31.7059 28.5143C31.1805 27.7262 30.9178 26.6754 30.9178 25.3618C30.9178 24.1067 31.2681 22.9828 31.9686 21.9904C32.6692 20.9979 33.6908 20.2244 35.0336 19.6698C36.4055 19.086 38.0693 18.7941 40.025 18.7941C41.5137 18.7941 43.0024 18.9984 44.4911 19.4071C45.9797 19.7866 47.2057 20.2974 48.169 20.9396L46.8117 23.4353C45.79 22.7347 44.6954 22.2385 43.5278 21.9466C42.3602 21.6255 41.1926 21.465 40.025 21.465C37.9525 21.465 36.4201 21.8299 35.4276 22.5596C34.4644 23.2602 33.9827 24.165 33.9827 25.2742C33.9827 26.1499 34.2454 26.8359 34.7709 27.3321C35.3255 27.8284 36.0406 28.2224 36.9163 28.5143C37.8212 28.777 38.7991 28.9959 39.8499 29.1711C40.9299 29.3462 41.9953 29.5651 43.0462 29.8279C44.1262 30.0614 45.104 30.3971 45.9797 30.8349C46.8846 31.2436 47.5998 31.842 48.1252 32.6301C48.6798 33.389 48.9571 34.3961 48.9571 35.6512C48.9571 36.9939 48.5776 38.1615 47.8187 39.154C47.089 40.1173 46.0089 40.8762 44.5786 41.4308C43.1775 41.9562 41.4699 42.2189 39.4558 42.2189ZM64.2065 42.2189C61.9297 42.2189 59.8864 41.7227 58.0766 40.7302C56.2961 39.7086 54.8949 38.3221 53.8733 36.5707C52.8517 34.7901 52.3408 32.7614 52.3408 30.4846C52.3408 28.1786 52.8517 26.1499 53.8733 24.3986C54.8949 22.6472 56.2961 21.2752 58.0766 20.2828C59.8864 19.2903 61.9297 18.7941 64.2065 18.7941C66.1622 18.7941 67.9282 19.1736 69.5044 19.9325C71.0807 20.6914 72.3213 21.8299 73.2261 23.3477L70.9055 24.924C70.1174 23.7564 69.1396 22.8953 67.972 22.3407C66.8044 21.7861 65.5346 21.5088 64.1627 21.5088C62.5281 21.5088 61.054 21.8882 59.7404 22.6472C58.4269 23.3769 57.3907 24.4131 56.6317 25.7559C55.8728 27.0986 55.4933 28.6749 55.4933 30.4846C55.4933 32.2944 55.8728 33.8706 56.6317 35.2134C57.3907 36.5561 58.4269 37.6069 59.7404 38.3659C61.054 39.0956 62.5281 39.4605 64.1627 39.4605C65.5346 39.4605 66.8044 39.1832 67.972 38.6286C69.1396 38.074 70.1174 37.2275 70.9055 36.0891L73.2261 37.6653C72.3213 39.154 71.0807 40.2924 69.5044 41.0805C67.9282 41.8395 66.1622 42.2189 64.2065 42.2189ZM88.3182 42.2189C86.0997 42.2189 84.1002 41.7227 82.3197 40.7302C80.5683 39.7086 79.1818 38.3221 78.1601 36.5707C77.1385 34.7901 76.6277 32.7614 76.6277 30.4846C76.6277 28.1786 77.1385 26.1499 78.1601 24.3986C79.1818 22.6472 80.5683 21.2752 82.3197 20.2828C84.0711 19.2903 86.0706 18.7941 88.3182 18.7941C90.595 18.7941 92.6091 19.2903 94.3605 20.2828C96.141 21.2752 97.5276 22.6472 98.52 24.3986C99.5416 26.1499 100.052 28.1786 100.052 30.4846C100.052 32.7614 99.5416 34.7901 98.52 36.5707C97.5276 38.3221 96.141 39.7086 94.3605 40.7302C92.5799 41.7227 90.5658 42.2189 88.3182 42.2189ZM88.3182 39.4605C89.982 39.4605 91.4561 39.0956 92.7404 38.3659C94.0248 37.6069 95.0318 36.5561 95.7616 35.2134C96.5205 33.8415 96.9 32.2652 96.9 30.4846C96.9 28.6749 96.5205 27.0986 95.7616 25.7559C95.0318 24.4131 94.0248 23.3769 92.7404 22.6472C91.4561 21.8882 89.9966 21.5088 88.362 21.5088C86.7273 21.5088 85.2678 21.8882 83.9835 22.6472C82.6991 23.3769 81.6775 24.4131 80.9186 25.7559C80.1596 27.0986 79.7802 28.6749 79.7802 30.4846C79.7802 32.2652 80.1596 33.8415 80.9186 35.2134C81.6775 36.5561 82.6991 37.6069 83.9835 38.3659C85.2678 39.0956 86.7127 39.4605 88.3182 39.4605ZM118.265 42.2189C116.28 42.2189 114.485 41.7665 112.879 40.8616C111.274 39.9275 109.99 38.5994 109.026 36.8772C108.092 35.1258 107.625 32.9949 107.625 30.4846C107.625 27.9743 108.092 25.858 109.026 24.1358C109.96 22.3845 111.23 21.0563 112.836 20.1514C114.441 19.2466 116.251 18.7941 118.265 18.7941C120.454 18.7941 122.41 19.2903 124.132 20.2828C125.883 21.2461 127.255 22.618 128.248 24.3986C129.24 26.1499 129.736 28.1786 129.736 30.4846C129.736 32.8198 129.24 34.8631 128.248 36.6145C127.255 38.3659 125.883 39.7378 124.132 40.7302C122.41 41.7227 120.454 42.2189 118.265 42.2189ZM106.399 50.4942V19.013H109.377V25.931L109.07 30.5284L109.508 35.1696V50.4942H106.399ZM118.046 39.4605C119.681 39.4605 121.14 39.0956 122.424 38.3659C123.709 37.6069 124.73 36.5561 125.489 35.2134C126.248 33.8415 126.628 32.2652 126.628 30.4846C126.628 28.704 126.248 27.1424 125.489 25.7997C124.73 24.4569 123.709 23.4061 122.424 22.6472C121.14 21.8882 119.681 21.5088 118.046 21.5088C116.411 21.5088 114.937 21.8882 113.624 22.6472C112.339 23.4061 111.318 24.4569 110.559 25.7997C109.829 27.1424 109.464 28.704 109.464 30.4846C109.464 32.2652 109.829 33.8415 110.559 35.2134C111.318 36.5561 112.339 37.6069 113.624 38.3659C114.937 39.0956 116.411 39.4605 118.046 39.4605Z" fill="white"/>
<rect x="141.534" y="19.6383" width="3.59874" height="6.59769" transform="rotate(-15 141.534 19.6383)" fill="white"/>
<rect x="146.346" y="37.5983" width="3.59874" height="6.59769" transform="rotate(-15 146.346 37.5983)" fill="white"/>
<rect x="134.841" y="36.3179" width="3.59874" height="6.59769" transform="rotate(-105 134.841 36.3179)" fill="white"/>
<rect x="152.801" y="31.5055" width="3.59874" height="6.59769" transform="rotate(-105 152.801 31.5055)" fill="white"/>
<path d="M149.558 42.6544C147.415 43.2285 145.355 43.2667 143.379 42.7689C141.422 42.2354 139.724 41.255 138.284 39.8277C136.836 38.3722 135.818 36.5449 135.229 34.3456C134.632 32.1182 134.6 30.0264 135.134 28.0703C135.667 26.1142 136.652 24.4301 138.086 23.0182C139.521 21.6063 141.324 20.6095 143.495 20.0277C145.694 19.4385 147.768 19.3965 149.717 19.9018C151.694 20.3996 153.388 21.3659 154.8 22.8008C156.24 24.2281 157.259 26.0554 157.855 28.2828C158.445 30.4821 158.476 32.5738 157.95 34.5582C157.445 36.5068 156.465 38.2049 155.009 39.6526C153.546 41.072 151.729 42.0726 149.558 42.6544ZM148.844 39.9899C150.451 39.5593 151.781 38.8253 152.832 37.788C153.876 36.7226 154.577 35.4469 154.935 33.961C155.313 32.4394 155.271 30.8187 154.81 29.0988C154.342 27.3507 153.567 25.9263 152.487 24.8258C151.434 23.7177 150.193 22.9774 148.764 22.6049C147.327 22.2043 145.819 22.2155 144.24 22.6386C142.661 23.0616 141.35 23.8059 140.305 24.8714C139.254 25.9087 138.535 27.174 138.15 28.6674C137.764 30.1609 137.805 31.7816 138.274 33.5297C138.735 35.2496 139.509 36.6739 140.597 37.8027C141.678 38.9032 142.937 39.6538 144.374 40.0545C145.803 40.427 147.293 40.4054 148.844 39.9899Z" fill="white"/>
</svg>
